<?xml version="1.0" encoding="UTF-8"?><svg id="b" xmlns="http://www.w3.org/2000/svg" viewBox="0 0 431.76 391.65"><g id="c"><g><g><path d="M400.31,196.6l-11.22,3.01c-3.15,.85-5.88,2.81-7.68,5.54-3.86,5.87-13.02,16.02-30.42,16.34,0,0,43.7,5.15,49.32-24.89Z" style="fill:#a03c2b; stroke:#843225; stroke-miterlimit:10; stroke-width:3px;"/><path d="M134.75,152.98c-.12-10.2-2.11-18.19-26.47-29.02-1.91-.85-2.48-3.28-1.15-4.89l12.57-12.65c26.41,.74,51.44,4.09,70.19-13.43h5.48s.03,37.64,.03,57.34v154.64c0,37.97-.2,55.57-28.36,71.56-12.87,7.31-37.79,13.96-71.84,13.62-20.96-.21-44.11-13.74-47.58-35.61-.94-5.95,1.17-12.99,4.68-17.85,4.43-6.13,11.58-9.87,22.47-16.34,14.93-8.87,28.42,24.05,28.42,41.19,0,8.19,3.44-5.42,2.85,6.51-.47,9.45,9.79,24.02,16.53,17.38,10.42-10.26,11.44-9.24,12.05-19.28l.14-213.17Z" style="fill:#a03c2b; stroke:#843225; stroke-miterlimit:10; stroke-width:3px;"/><path d="M172.33,13.9c13.55-3.28,26.57,6.61,27.41,20.53,.6,9.96,6.37,10.25,3.71,17.63-3.06,8.51-22.4,18.95-36.77,18.95-15.76,0-29.14-14.5-29.6-29.66-.4-13.48,11.3-27.65,23.13-32.88,8.74-3.86-7.38,10.15,12.11,5.43Z" style="fill:#a03c2b; stroke:#843225; stroke-miterlimit:10; stroke-width:3px;"/><path d="M401.27,142.9c0,10.59-.27,8.03-7.15,16.06-4.09,4.77-21.52,15.24-28.02,14.97-12.74-.52-24.64-15.06-23.98-29.94,.64-14.3,.37-22.24-1.09-31.77-1.59-10.36-11.78-27.84-23.52-27.84-29.34,0-39.97,47.22-39.97,76.98,0,46.1,26.4,73.76,64.96,73.76,16.34,0,28.5-8.38,36.04-15.92,5.61-5.61,6.51-7.8,8.28-7.66,1.27,.1,2.23,1.34,2.14,2.62-.93,12.56-20.17,30.7-22.07,31.96-11.92,7.83-39.15,24.85-72.86,18.39-23.22-4.46-42.88-15.73-55.84-36.43-35.35-56.49,1.96-135.06,68.09-144.13,15.89-4.31,29.96-2.95,30.25-2.86,30.1,9.04,64.75,27.04,64.74,61.82Z" style="fill:#a03c2b; stroke:#843225; stroke-miterlimit:10; stroke-width:3px;"/></g><path d="M149.16,139.25c-.12-10.57-2.26-18.77-29.23-30.22-.65-.27-1.07-.91-1.07-1.61h0c0-.98,.79-1.75,1.77-1.74,25.97,.28,64.06-8.98,82.74-25.59,.6-.53,1.37-.84,2.17-.84h.99c1.79,0,3.24,1.44,3.24,3.23,0,9.53,.03,37.9,.03,54.11v154.64c0,55.32-29.77,96.81-89.7,96.8-27.84,0-56.88-15.6-58.2-43.28-.72-14.94,10.69-28.18,25.63-28.78,17.35-.71,30.06,14.68,30.06,31.83,0,7.48-.41,11.66-.42,19.07,0,8.9,7.05,16.4,15.95,16.55,13.77,.22,15.9-11.12,15.9-31.01l.14-213.17Z" style="fill:#da7c56; stroke:#843225; stroke-miterlimit:10; stroke-width:3px;"/><path d="M179.23,1.5c17.6,0,31.85,14.25,31.85,31.85,0,17.6-14.25,31.85-31.85,31.85-17.6,0-31.85-14.25-31.85-31.85,0-17.6,14.25-31.85,31.85-31.85Z" style="fill:#da7c56; stroke:#843225; stroke-miterlimit:10; stroke-width:3px;"/><path d="M403.66,136.26c0,17.6-10.06,28.5-26.4,28.5-16.34,0-25.98-15.09-25.98-30.59,0-12.15,1.68-18.86,1.68-30.59,0-10.48-10.9-20.12-22.63-20.12-29.34,0-39.4,34.78-39.4,64.54,0,46.1,26.4,73.76,64.96,73.76,16.34,0,28.5-8.38,36.04-15.92,5.45-5.45,6.71-9.22,8.38-9.22,1.26,0,2.09,1.26,2.09,2.52,0,19.28-30.18,59.09-74.18,59.09-46.1,0-87.59-36.88-87.59-84.24,0-51.97,40.24-94.71,93.46-94.71,31.43,0,69.57,22.21,69.57,57Z" style="fill:#da7c56; stroke:#843225; stroke-miterlimit:10; stroke-width:3px;"/></g><path d="M429.43,40.69l-11.37,4.31c-5.55,2.11-9.89,6.56-11.85,12.17l-3.5,10.05c-.4,1.15-2.03,1.14-2.42-.01l-3.34-9.93c-1.94-5.75-6.37-10.32-12.06-12.42l-11.44-4.23c-1.12-.41-1.11-2.01,.02-2.41l10.73-3.8c5.69-2.01,10.17-6.48,12.21-12.17l3.73-10.42c.42-1.17,2.1-1.11,2.44,.09l2.51,9.04c1.81,6.5,6.76,11.66,13.18,13.73l11.11,3.58c1.15,.37,1.19,1.98,.06,2.41Z" style="fill:none; stroke:#843326; stroke-miterlimit:10; stroke-width:3px;"/><path d="M58.31,286.1l-11.37,4.31c-5.55,2.11-9.89,6.56-11.85,12.17l-3.5,10.05c-.4,1.15-2.03,1.14-2.42-.01l-3.34-9.93c-1.94-5.75-6.37-10.32-12.06-12.42l-11.44-4.23c-1.12-.41-1.11-2.01,.02-2.41l10.73-3.8c5.69-2.01,10.17-6.48,12.21-12.17l3.73-10.42c.42-1.17,2.1-1.11,2.44,.09l2.51,9.04c1.81,6.5,6.76,11.66,13.18,13.73l11.11,3.58c1.15,.37,1.19,1.98,.06,2.41Z" style="fill:none; stroke:#843326; stroke-miterlimit:10; stroke-width:3px;"/></g></svg>